# xmcd CD database file
#
# Track frame offsets:
#	150
#	12017
#	21184
#	33776
#	44291
#	54791
#	73878
#	87363
#	97116
#	108350
#	118859
#	125374
#	138099
#	149149
#	164621
#	174100
#	186097
#	196822
#	206759
#	224651
#
# Disc length: 3163 seconds
#
# Revision: 0
# Processed by: cddbd v1.5.2PL0 Copyright (c) Steve Scherf et al.
# Submitted via: CDex 1.70beta2
#
DISCID=210c5914
DTITLE=Eric Clapton - The Blues Years
DYEAR=1900
DGENRE=Blues
TTITLE0=Got To Hurry - Clapton, Eric and The Yardbirds 
TTITLE1=I Ain't Got You - Clapton, Eric and The Yardbirds 
TTITLE2=Good Morning Little Schoolgirl - Clapton, Eric and The Yardbirds 
TTITLE3=Let It Rock - Clapton, Eric and The Yardbirds 
TTITLE4=Certain Girl - Clapton, Eric and The Yardbirds 
TTITLE5=Take It Easy Baby - Clapton, Eric and The Yardbirds
TTITLE6=Too Much Monkey Business - Clapton, Eric and The Yardbirds 
TTITLE7=Draggin' My Tail - Clapton, Eric and The Immediate All-Stars
TTITLE8=Tribute To Elmore - Clapton, Eric and The Immediate All-Stars
TTITLE9=Snake Drive - Clapton, Eric and The Immediate All-Stars
TTITLE10=West Coast Idea - Clapton, Eric and The Immediate All-Stars
TTITLE11=Choker - Clapton, Eric and The Immediate All-Stars
TTITLE12=Freight Loader - Clapton, Eric and The Immediate All-Stars
TTITLE13=Miles Road - Clapton, Eric and The Immediate All-Stars
TTITLE14=Down In The Boots - Page, Jimmy and The Immediate All-Stars
TTITLE15=LA Breakdown - Page, Jimmy and The Immediate All-Stars
TTITLE16=Steelin' - Beck, Jeff and The Immediate All-Stars 
TTITLE17=Chuckles - Beck, Jeff and The Immediate All-Stars
TTITLE18=I'm Your Witchdoctor - Clapton, Eric and John Mayall's Bluesbreakers
TTITLE19=Telephone Blues - Clapton, Eric and John Mayall's Bluesbreakers
EXTD=
EXTT0=
EXTT1=
EXTT2=
EXTT3=
EXTT4=
EXTT5=
EXTT6=
EXTT7=
EXTT8=
EXTT9=
EXTT10=
EXTT11=
EXTT12=
EXTT13=
EXTT14=
EXTT15=
EXTT16=
EXTT17=
EXTT18=
EXTT19=
PLAYORDER=
